<?xml version="1.0" encoding="utf-8"?>
<!-- Generator: Adobe Illustrator 23.0.3, SVG Export Plug-In . SVG Version: 6.00 Build 0)  -->
<svg version="1.1" id="Слой_1" xmlns="http://www.w3.org/2000/svg" xmlns:xlink="http://www.w3.org/1999/xlink" x="0px" y="0px"
	 viewBox="0 0 1502.36 1177.12" style="enable-background:new 0 0 1502.36 1177.12;" xml:space="preserve">
<style type="text/css">
	.st0{fill:#474859;}
	.st1{fill:url(#SVGID_1_);}
	.st2{fill:url(#SVGID_2_);}
	.st3{fill:url(#SVGID_3_);}
	.st4{fill:url(#SVGID_4_);}
	.st5{fill:url(#SVGID_5_);}
	.st6{fill:url(#SVGID_6_);}
	.st7{fill:url(#SVGID_7_);}
	.st8{fill:url(#SVGID_8_);}
	.st9{fill:url(#SVGID_9_);}
	.st10{fill:url(#SVGID_10_);}
	.st11{fill:url(#SVGID_11_);}
	.st12{fill:url(#SVGID_12_);}
	.st13{fill:url(#SVGID_13_);}
	.st14{fill:url(#SVGID_14_);}
	.st15{fill:url(#SVGID_15_);}
	.st16{fill:url(#SVGID_16_);}
	.st17{fill:url(#SVGID_17_);}
	.st18{fill:url(#SVGID_18_);}
	.st19{fill:url(#SVGID_19_);}
	.st20{fill:url(#SVGID_20_);}
	.st21{fill:url(#SVGID_21_);}
	.st22{fill:url(#SVGID_22_);}
	.st23{fill:url(#SVGID_23_);}
	.st24{fill:url(#SVGID_24_);}
	.st25{fill:url(#SVGID_25_);}
	.st26{fill:url(#SVGID_26_);}
	.st27{fill:url(#SVGID_27_);}
	.st28{fill:url(#SVGID_28_);}
	.st29{fill:url(#SVGID_29_);}
	.st30{fill:url(#SVGID_30_);}
	.st31{fill:url(#SVGID_31_);}
	.st32{fill:url(#SVGID_32_);}
	.st33{fill:url(#SVGID_33_);}
	.st34{fill:url(#SVGID_34_);}
	.st35{fill:url(#SVGID_35_);}
	.st36{fill:url(#SVGID_36_);}
	.st37{fill:url(#SVGID_37_);}
	.st38{fill:url(#SVGID_38_);}
	.st39{fill:url(#SVGID_39_);}
	.st40{fill:url(#SVGID_40_);}
	.st41{fill:url(#SVGID_41_);}
	.st42{fill:url(#SVGID_42_);}
	.st43{fill:url(#SVGID_43_);}
	.st44{fill:url(#SVGID_44_);}
	.st45{fill:url(#SVGID_45_);}
</style>
<g>
	<g>
		<path class="st0" d="M64.31,1056.09c-20.01-10.63-35.73-25.44-47.17-44.42C5.71,992.69,0,971.19,0,947.18
			c0-24.01,5.71-45.5,17.15-64.49c11.43-18.98,27.15-33.79,47.17-44.42c20-10.63,42.59-15.95,67.74-15.95
			c21.95,0,41.73,3.89,59.34,11.66c17.61,7.78,32.24,18.98,43.91,33.61l-43.22,39.1c-15.55-18.75-34.42-28.13-56.59-28.13
			c-13.04,0-24.65,2.86-34.82,8.58c-10.18,5.72-18.07,13.78-23.67,24.18c-5.61,10.41-8.41,22.36-8.41,35.84
			c0,13.5,2.8,25.44,8.41,35.84c5.6,10.41,13.48,18.47,23.67,24.18c10.17,5.72,21.78,8.57,34.82,8.57
			c22.17,0,41.04-9.38,56.59-28.13l43.22,39.1c-11.66,14.64-26.3,25.84-43.91,33.61s-37.39,11.66-59.34,11.66
			C106.9,1072.04,84.32,1066.72,64.31,1056.09z"/>
		<path class="st0" d="M411.61,899.33c16.23,14.06,24.36,35.62,24.36,64.66v103.25h-60.72v-24.01c-9.38,18.07-27.67,27.1-54.88,27.1
			c-14.41,0-26.87-2.52-37.39-7.55c-10.52-5.02-18.47-11.83-23.84-20.41c-5.37-8.57-8.06-18.35-8.06-29.33
			c0-17.61,6.75-31.27,20.24-40.99c13.49-9.72,34.3-14.58,62.42-14.58h37.05c-1.15-19.66-14.3-29.5-39.44-29.5
			c-8.92,0-17.95,1.43-27.1,4.29c-9.15,2.86-16.92,6.81-23.32,11.83l-21.95-44.25c10.29-6.86,22.81-12.18,37.56-15.95
			c14.74-3.77,29.55-5.66,44.42-5.66C371.82,878.24,395.37,885.27,411.61,899.33z M358.44,1023.67c5.71-3.65,9.83-9.03,12.35-16.12
			v-16.12h-28.13c-18.99,0-28.47,6.29-28.47,18.87c0,5.72,2.18,10.29,6.52,13.72c4.34,3.43,10.29,5.14,17.84,5.14
			S352.72,1027.33,358.44,1023.67z"/>
		<path class="st0" d="M498.73,1065.01c-15.1-3.54-27.22-8.17-36.36-13.89l19.55-44.59c8.46,5.26,18.53,9.43,30.19,12.52
			c11.66,3.08,23.2,4.63,34.65,4.63c10.51,0,18-1.08,22.47-3.26c4.46-2.17,6.69-5.31,6.69-9.43c0-4.12-2.69-7.03-8.07-8.75
			c-5.37-1.72-13.89-3.37-25.55-4.97c-14.87-1.83-27.5-4.23-37.91-7.2c-10.4-2.97-19.37-8.46-26.92-16.47
			c-7.55-8-11.33-19.21-11.33-33.61c0-11.88,3.55-22.47,10.64-31.73c7.08-9.26,17.43-16.58,31.04-21.95
			c13.6-5.37,29.89-8.06,48.88-8.06c13.48,0,26.86,1.37,40.13,4.11c13.27,2.75,24.36,6.64,33.28,11.67l-19.56,44.25
			c-16.46-9.15-34.29-13.72-53.51-13.72c-10.28,0-17.84,1.2-22.63,3.6c-4.81,2.4-7.21,5.55-7.21,9.43c0,4.34,2.63,7.37,7.89,9.09
			c5.26,1.71,13.95,3.49,26.07,5.31c15.32,2.29,28.01,4.92,38.08,7.89c10.07,2.97,18.81,8.41,26.24,16.29
			c7.44,7.89,11.15,18.92,11.15,33.1c0,11.67-3.55,22.13-10.63,31.39c-7.09,9.26-17.56,16.52-31.39,21.78
			c-13.84,5.26-30.47,7.89-49.9,7.89C529.13,1070.32,513.82,1068.55,498.73,1065.01z"/>
		<path class="st0" d="M841.57,898.82c14.06,13.72,21.09,34.42,21.09,62.08v106.33h-65.17v-95.7c0-25.39-10.17-38.08-30.52-38.08
			c-11.21,0-20.19,3.66-26.93,10.98c-6.75,7.32-10.12,18.3-10.12,32.93v89.87h-65.17V812.73h65.17v85.75
			c7.09-6.63,15.44-11.66,25.04-15.09c9.6-3.43,19.89-5.14,30.87-5.14C808.92,878.24,827.5,885.1,841.57,898.82z"/>
		<path class="st0" d="M1072.92,837.93c16,7.2,28.36,17.5,37.05,30.87c8.69,13.38,13.03,29.1,13.03,47.17
			c0,18.06-4.34,33.73-13.03,46.99c-8.7,13.27-21.05,23.49-37.05,30.7c-16,7.2-34.87,10.8-56.59,10.8h-41.85v62.77h-67.92V827.13
			h109.77C1038.05,827.13,1056.92,830.73,1072.92,837.93z M1043.77,941.86c7.08-6.05,10.64-14.69,10.64-25.89
			s-3.55-19.89-10.64-26.07c-7.09-6.18-17.61-9.26-31.56-9.26h-37.73v70.32h37.73C1026.16,950.96,1036.68,947.93,1043.77,941.86z"/>
		<path class="st0" d="M1242.54,884.58c10.64-4.23,22.81-6.34,36.53-6.34v58.65c-5.95-0.68-10.86-1.03-14.74-1.03
			c-13.95,0-24.87,3.78-32.76,11.32c-7.89,7.54-11.84,19.1-11.84,34.64v85.41h-65.17V881.32h62.09v22.3
			C1223.27,895.17,1231.91,888.82,1242.54,884.58z"/>
		<path class="st0" d="M1343.56,1057.97c-16-8.23-28.52-19.66-37.55-34.3c-9.04-14.63-13.55-31.22-13.55-49.74
			c0-18.29,4.51-34.76,13.55-49.39c9.03-14.63,21.49-26.01,37.39-34.13c15.89-8.11,33.9-12.17,54.02-12.17
			c20.11,0,38.19,4.06,54.19,12.17c16.01,8.12,28.48,19.44,37.39,33.96c8.92,14.53,13.38,31.04,13.38,49.56s-4.45,35.11-13.38,49.74
			c-8.91,14.64-21.37,26.07-37.39,34.3c-16,8.23-34.08,12.35-54.19,12.35C1377.52,1070.32,1359.56,1066.21,1343.56,1057.97z
			 M1425.54,1006.7c7.31-7.89,10.97-18.81,10.97-32.76c0-13.72-3.66-24.47-10.97-32.24c-7.33-7.77-16.7-11.67-28.13-11.67
			c-11.44,0-20.81,3.89-28.13,11.67c-7.32,7.78-10.97,18.52-10.97,32.24c0,13.95,3.65,24.87,10.97,32.76
			c7.32,7.89,16.69,11.83,28.13,11.83C1408.84,1018.53,1418.21,1014.58,1425.54,1006.7z"/>
	</g>
	<g>
		<linearGradient id="SVGID_1_" gradientUnits="userSpaceOnUse" x1="262.572" y1="1096.5621" x2="1523.1014" y2="718.713">
			<stop  offset="0" style="stop-color:#A96F0C"/>
			<stop  offset="0.1904" style="stop-color:#FEC329"/>
			<stop  offset="0.3985" style="stop-color:#FFE97A"/>
			<stop  offset="0.6218" style="stop-color:#B37603"/>
			<stop  offset="1" style="stop-color:#FFC025"/>
		</linearGradient>
		<path class="st1" d="M95.71,1163.03c-3.17,2.72-7.74,4.26-13.74,4.6v3.91h-9.19v-3.91c-5.99-0.44-10.58-2-13.74-4.67
			c-3.17-2.68-4.75-6.34-4.75-10.97c0-4.64,1.57-8.31,4.72-11c3.15-2.69,7.74-4.26,13.77-4.69v-3.66h9.19v3.66
			c6,0.4,10.58,1.95,13.74,4.65c3.17,2.69,4.75,6.37,4.75,11.05C100.46,1156.61,98.87,1160.3,95.71,1163.03z M66.21,1157.31
			c1.46,1.25,3.64,2.07,6.56,2.44v-15.59c-3.05,0.34-5.27,1.14-6.65,2.39c-1.39,1.25-2.09,3.06-2.09,5.44
			C64.03,1154.28,64.76,1156.06,66.21,1157.31z M88.59,1157.36c1.41-1.29,2.11-3.1,2.11-5.44s-0.72-4.13-2.16-5.38
			c-1.44-1.25-3.63-2.05-6.58-2.39v15.64C84.98,1159.46,87.19,1158.65,88.59,1157.36z"/>
		<linearGradient id="SVGID_2_" gradientUnits="userSpaceOnUse" x1="266.3098" y1="1109.0315" x2="1526.8392" y2="731.1824">
			<stop  offset="0" style="stop-color:#A96F0C"/>
			<stop  offset="0.1904" style="stop-color:#FEC329"/>
			<stop  offset="0.3985" style="stop-color:#FFE97A"/>
			<stop  offset="0.6218" style="stop-color:#B37603"/>
			<stop  offset="1" style="stop-color:#FFC025"/>
		</linearGradient>
		<path class="st2" d="M105.68,1134.3h9.9v20.88l14.69-20.88h9.45v35.56h-9.9v-20.83l-14.63,20.83h-9.5V1134.3z"/>
		<linearGradient id="SVGID_3_" gradientUnits="userSpaceOnUse" x1="269.7356" y1="1120.4604" x2="1530.265" y2="742.6113">
			<stop  offset="0" style="stop-color:#A96F0C"/>
			<stop  offset="0.1904" style="stop-color:#FEC329"/>
			<stop  offset="0.3985" style="stop-color:#FFE97A"/>
			<stop  offset="0.6218" style="stop-color:#B37603"/>
			<stop  offset="1" style="stop-color:#FFC025"/>
		</linearGradient>
		<path class="st3" d="M181.17,1134.3v35.56h-10.06v-13.87H157.4v13.87h-10.06v-35.56h10.06v13.36h13.71v-13.36H181.17z"/>
		<linearGradient id="SVGID_4_" gradientUnits="userSpaceOnUse" x1="273.8168" y1="1134.0754" x2="1534.3462" y2="756.2264">
			<stop  offset="0" style="stop-color:#A96F0C"/>
			<stop  offset="0.1904" style="stop-color:#FEC329"/>
			<stop  offset="0.3985" style="stop-color:#FFE97A"/>
			<stop  offset="0.6218" style="stop-color:#B37603"/>
			<stop  offset="1" style="stop-color:#FFC025"/>
		</linearGradient>
		<path class="st4" d="M213.33,1162.95h-15.04l-2.8,6.91h-10.26l15.7-35.56h9.9l15.75,35.56h-10.46L213.33,1162.95z M210.38,1155.53
			l-4.57-11.38l-4.57,11.38H210.38z"/>
		<linearGradient id="SVGID_5_" gradientUnits="userSpaceOnUse" x1="276.6043" y1="1143.375" x2="1537.1338" y2="765.5259">
			<stop  offset="0" style="stop-color:#A96F0C"/>
			<stop  offset="0.1904" style="stop-color:#FEC329"/>
			<stop  offset="0.3985" style="stop-color:#FFE97A"/>
			<stop  offset="0.6218" style="stop-color:#B37603"/>
			<stop  offset="1" style="stop-color:#FFC025"/>
		</linearGradient>
		<path class="st5" d="M264.49,1134.3v35.56h-10.06v-13.87h-13.71v13.87h-10.06v-35.56h10.06v13.36h13.71v-13.36H264.49z"/>
		<linearGradient id="SVGID_6_" gradientUnits="userSpaceOnUse" x1="280.0581" y1="1154.897" x2="1540.5875" y2="777.0479">
			<stop  offset="0" style="stop-color:#A96F0C"/>
			<stop  offset="0.1904" style="stop-color:#FEC329"/>
			<stop  offset="0.3985" style="stop-color:#FFE97A"/>
			<stop  offset="0.6218" style="stop-color:#B37603"/>
			<stop  offset="1" style="stop-color:#FFC025"/>
		</linearGradient>
		<path class="st6" d="M279.4,1168.21c-2.96-1.57-5.29-3.77-6.99-6.58c-1.69-2.82-2.54-6-2.54-9.55c0-3.56,0.84-6.74,2.54-9.55
			c1.69-2.81,4.02-5,6.99-6.58c2.96-1.57,6.31-2.36,10.03-2.36c3.25,0,6.18,0.57,8.79,1.73c2.61,1.15,4.77,2.81,6.5,4.98l-6.41,5.79
			c-2.3-2.78-5.1-4.17-8.38-4.17c-1.93,0-3.65,0.43-5.16,1.27c-1.51,0.84-2.68,2.04-3.5,3.58c-0.83,1.55-1.25,3.32-1.25,5.31
			c0,2,0.42,3.77,1.25,5.31c0.83,1.55,2,2.73,3.5,3.59c1.51,0.84,3.23,1.27,5.16,1.27c3.28,0,6.08-1.39,8.38-4.17l6.41,5.79
			c-1.73,2.17-3.9,3.83-6.5,4.98s-5.54,1.73-8.79,1.73C285.7,1170.57,282.36,1169.78,279.4,1168.21z"/>
		<linearGradient id="SVGID_7_" gradientUnits="userSpaceOnUse" x1="283.0663" y1="1164.9325" x2="1543.5957" y2="787.0834">
			<stop  offset="0" style="stop-color:#A96F0C"/>
			<stop  offset="0.1904" style="stop-color:#FEC329"/>
			<stop  offset="0.3985" style="stop-color:#FFE97A"/>
			<stop  offset="0.6218" style="stop-color:#B37603"/>
			<stop  offset="1" style="stop-color:#FFC025"/>
		</linearGradient>
		<path class="st7" d="M315.82,1168.18c-3-1.59-5.35-3.79-7.06-6.6c-1.71-2.81-2.57-5.98-2.57-9.5c0-3.52,0.86-6.69,2.57-9.5
			c1.71-2.81,4.06-5.01,7.06-6.6c2.99-1.59,6.37-2.39,10.13-2.39c3.76,0,7.14,0.8,10.13,2.39c2.99,1.59,5.35,3.79,7.06,6.6
			c1.71,2.81,2.56,5.98,2.56,9.5c0,3.53-0.86,6.69-2.56,9.5c-1.71,2.81-4.07,5.01-7.06,6.6c-3,1.59-6.38,2.39-10.13,2.39
			C322.19,1170.57,318.81,1169.77,315.82,1168.18z M330.82,1160.97c1.46-0.85,2.61-2.04,3.46-3.59c0.84-1.54,1.27-3.31,1.27-5.31
			c0-1.99-0.43-3.76-1.27-5.31c-0.85-1.54-2-2.73-3.46-3.58c-1.45-0.84-3.08-1.27-4.87-1.27c-1.8,0-3.42,0.43-4.88,1.27
			c-1.46,0.84-2.61,2.04-3.45,3.58c-0.85,1.55-1.27,3.32-1.27,5.31c0,2,0.42,3.77,1.27,5.31c0.84,1.55,1.99,2.73,3.45,3.59
			c1.45,0.84,3.08,1.27,4.88,1.27C327.74,1162.24,329.37,1161.81,330.82,1160.97z"/>
		<linearGradient id="SVGID_8_" gradientUnits="userSpaceOnUse" x1="286.0459" y1="1174.8727" x2="1546.5753" y2="797.0236">
			<stop  offset="0" style="stop-color:#A96F0C"/>
			<stop  offset="0.1904" style="stop-color:#FEC329"/>
			<stop  offset="0.3985" style="stop-color:#FFE97A"/>
			<stop  offset="0.6218" style="stop-color:#B37603"/>
			<stop  offset="1" style="stop-color:#FFC025"/>
		</linearGradient>
		<path class="st8" d="M381.8,1154.41c1.1,1.42,1.65,3.18,1.65,5.29c0,3.15-1.22,5.63-3.68,7.44c-2.45,1.81-5.93,2.72-10.44,2.72
			h-18.24v-35.56h17.27c4.27,0,7.58,0.8,9.93,2.41c2.36,1.61,3.53,3.88,3.53,6.83c0,1.73-0.41,3.25-1.24,4.57
			c-0.83,1.32-2.03,2.37-3.59,3.15C379.1,1151.94,380.7,1152.99,381.8,1154.41z M361,1148.52h6.4c2.84,0,4.27-1.17,4.27-3.5
			c0-2.33-1.42-3.5-4.27-3.5H361V1148.52z M373.29,1158.94c0-2.4-1.46-3.61-4.37-3.61H361v7.31h7.93
			C371.83,1162.64,373.29,1161.41,373.29,1158.94z"/>
		<linearGradient id="SVGID_9_" gradientUnits="userSpaceOnUse" x1="290.3134" y1="1189.1095" x2="1550.8429" y2="811.2603">
			<stop  offset="0" style="stop-color:#A96F0C"/>
			<stop  offset="0.1904" style="stop-color:#FEC329"/>
			<stop  offset="0.3985" style="stop-color:#FFE97A"/>
			<stop  offset="0.6218" style="stop-color:#B37603"/>
			<stop  offset="1" style="stop-color:#FFC025"/>
		</linearGradient>
		<path class="st9" d="M413.42,1162.95h-15.04l-2.8,6.91h-10.26l15.7-35.56h9.9l15.75,35.56h-10.46L413.42,1162.95z M410.48,1155.53
			l-4.57-11.38l-4.57,11.38H410.48z"/>
		<linearGradient id="SVGID_10_" gradientUnits="userSpaceOnUse" x1="293.1971" y1="1198.7295" x2="1553.7266" y2="820.8804">
			<stop  offset="0" style="stop-color:#A96F0C"/>
			<stop  offset="0.1904" style="stop-color:#FEC329"/>
			<stop  offset="0.3985" style="stop-color:#FFE97A"/>
			<stop  offset="0.6218" style="stop-color:#B37603"/>
			<stop  offset="1" style="stop-color:#FFC025"/>
		</linearGradient>
		<path class="st10" d="M458.58,1134.3v35.56h-9.9v-8.94h-5.49l-5.84,8.94h-10.57l7.22-10.42c-2.37-1.05-4.18-2.56-5.44-4.54
			c-1.25-1.98-1.88-4.34-1.88-7.08c0-2.78,0.64-5.18,1.93-7.22c1.29-2.03,3.13-3.59,5.54-4.67c2.4-1.09,5.21-1.63,8.43-1.63H458.58z
			 M436.84,1147.66c0,1.8,0.5,3.16,1.5,4.09c1,0.93,2.45,1.4,4.34,1.4h5.99v-10.92h-5.89
			C438.82,1142.22,436.84,1144.03,436.84,1147.66z"/>
		<linearGradient id="SVGID_11_" gradientUnits="userSpaceOnUse" x1="297.2239" y1="1212.1631" x2="1557.7533" y2="834.314">
			<stop  offset="0" style="stop-color:#A96F0C"/>
			<stop  offset="0.1904" style="stop-color:#FEC329"/>
			<stop  offset="0.3985" style="stop-color:#FFE97A"/>
			<stop  offset="0.6218" style="stop-color:#B37603"/>
			<stop  offset="1" style="stop-color:#FFC025"/>
		</linearGradient>
		<path class="st11" d="M514.36,1134.3v35.56h-9.96v-27.58h-13.51v27.58h-9.9v-35.56H514.36z"/>
		<linearGradient id="SVGID_12_" gradientUnits="userSpaceOnUse" x1="300.6685" y1="1223.6547" x2="1561.198" y2="845.8055">
			<stop  offset="0" style="stop-color:#A96F0C"/>
			<stop  offset="0.1904" style="stop-color:#FEC329"/>
			<stop  offset="0.3985" style="stop-color:#FFE97A"/>
			<stop  offset="0.6218" style="stop-color:#B37603"/>
			<stop  offset="1" style="stop-color:#FFC025"/>
		</linearGradient>
		<path class="st12" d="M529.32,1168.18c-3-1.59-5.35-3.79-7.06-6.6c-1.71-2.81-2.57-5.98-2.57-9.5c0-3.52,0.86-6.69,2.57-9.5
			c1.71-2.81,4.06-5.01,7.06-6.6c2.99-1.59,6.37-2.39,10.13-2.39c3.76,0,7.14,0.8,10.13,2.39c2.99,1.59,5.35,3.79,7.06,6.6
			c1.71,2.81,2.56,5.98,2.56,9.5c0,3.53-0.86,6.69-2.56,9.5c-1.71,2.81-4.07,5.01-7.06,6.6c-3,1.59-6.38,2.39-10.13,2.39
			C535.69,1170.57,532.31,1169.77,529.32,1168.18z M544.33,1160.97c1.46-0.85,2.61-2.04,3.46-3.59c0.84-1.54,1.27-3.31,1.27-5.31
			c0-1.99-0.43-3.76-1.27-5.31c-0.85-1.54-2-2.73-3.46-3.58c-1.45-0.84-3.08-1.27-4.87-1.27c-1.8,0-3.42,0.43-4.88,1.27
			c-1.46,0.84-2.61,2.04-3.45,3.58c-0.85,1.55-1.27,3.32-1.27,5.31c0,2,0.42,3.77,1.27,5.31c0.84,1.55,1.99,2.73,3.45,3.59
			c1.45,0.84,3.08,1.27,4.88,1.27C541.25,1162.24,542.87,1161.81,544.33,1160.97z"/>
		<linearGradient id="SVGID_13_" gradientUnits="userSpaceOnUse" x1="304.4465" y1="1236.2582" x2="1564.976" y2="858.4091">
			<stop  offset="0" style="stop-color:#A96F0C"/>
			<stop  offset="0.1904" style="stop-color:#FEC329"/>
			<stop  offset="0.3985" style="stop-color:#FFE97A"/>
			<stop  offset="0.6218" style="stop-color:#B37603"/>
			<stop  offset="1" style="stop-color:#FFC025"/>
		</linearGradient>
		<path class="st13" d="M596.65,1169.86l-0.05-18.84l-9.14,15.34h-4.47l-9.15-14.94v18.44h-9.24v-35.56h8.28l12.5,20.52l12.19-20.52
			h8.28l0.1,35.56H596.65z"/>
		<linearGradient id="SVGID_14_" gradientUnits="userSpaceOnUse" x1="308.2156" y1="1248.8322" x2="1568.745" y2="870.983">
			<stop  offset="0" style="stop-color:#A96F0C"/>
			<stop  offset="0.1904" style="stop-color:#FEC329"/>
			<stop  offset="0.3985" style="stop-color:#FFE97A"/>
			<stop  offset="0.6218" style="stop-color:#B37603"/>
			<stop  offset="1" style="stop-color:#FFC025"/>
		</linearGradient>
		<path class="st14" d="M620.86,1168.18c-3-1.59-5.35-3.79-7.06-6.6c-1.71-2.81-2.57-5.98-2.57-9.5c0-3.52,0.86-6.69,2.57-9.5
			c1.71-2.81,4.06-5.01,7.06-6.6c2.99-1.59,6.37-2.39,10.13-2.39c3.76,0,7.14,0.8,10.13,2.39c2.99,1.59,5.35,3.79,7.06,6.6
			c1.71,2.81,2.56,5.98,2.56,9.5c0,3.53-0.86,6.69-2.56,9.5c-1.71,2.81-4.07,5.01-7.06,6.6c-3,1.59-6.38,2.39-10.13,2.39
			C627.23,1170.57,623.85,1169.77,620.86,1168.18z M635.87,1160.97c1.46-0.85,2.61-2.04,3.46-3.59c0.84-1.54,1.27-3.31,1.27-5.31
			c0-1.99-0.43-3.76-1.27-5.31c-0.85-1.54-2-2.73-3.46-3.58c-1.45-0.84-3.08-1.27-4.87-1.27c-1.8,0-3.42,0.43-4.88,1.27
			c-1.46,0.84-2.61,2.04-3.45,3.58c-0.85,1.55-1.27,3.32-1.27,5.31c0,2,0.42,3.77,1.27,5.31c0.84,1.55,1.99,2.73,3.45,3.59
			c1.45,0.84,3.08,1.27,4.88,1.27C632.79,1162.24,634.41,1161.81,635.87,1160.97z"/>
		<linearGradient id="SVGID_15_" gradientUnits="userSpaceOnUse" x1="313.4518" y1="1266.3004" x2="1573.9812" y2="888.4513">
			<stop  offset="0" style="stop-color:#A96F0C"/>
			<stop  offset="0.1904" style="stop-color:#FEC329"/>
			<stop  offset="0.3985" style="stop-color:#FFE97A"/>
			<stop  offset="0.6218" style="stop-color:#B37603"/>
			<stop  offset="1" style="stop-color:#FFC025"/>
		</linearGradient>
		<path class="st15" d="M704.35,1134.3v35.56h-48.21v-35.56h9.91v27.58h9.3v-27.58h9.91v27.58h9.2v-27.58H704.35z M708.97,1161.88
			v15.14h-9.25v-7.16h-5.49v-7.97H708.97z"/>
		<linearGradient id="SVGID_16_" gradientUnits="userSpaceOnUse" x1="315.8828" y1="1274.4105" x2="1576.4122" y2="896.5613">
			<stop  offset="0" style="stop-color:#A96F0C"/>
			<stop  offset="0.1904" style="stop-color:#FEC329"/>
			<stop  offset="0.3985" style="stop-color:#FFE97A"/>
			<stop  offset="0.6218" style="stop-color:#B37603"/>
			<stop  offset="1" style="stop-color:#FFC025"/>
		</linearGradient>
		<path class="st16" d="M742.04,1148.55c2.37,1.95,3.56,4.83,3.56,8.66c0,4.1-1.32,7.23-3.96,9.4c-2.64,2.17-6.31,3.25-11.02,3.25
			H713.8v-35.56h9.91v11.32h8.23C736.3,1145.62,739.67,1146.6,742.04,1148.55z M733.99,1161.27c1-0.91,1.5-2.2,1.5-3.86
			c0-3.09-1.85-4.63-5.54-4.63h-6.25v9.85h6.25C731.64,1162.64,732.99,1162.19,733.99,1161.27z"/>
		<linearGradient id="SVGID_17_" gradientUnits="userSpaceOnUse" x1="320.8718" y1="1291.0542" x2="1581.4012" y2="913.205">
			<stop  offset="0" style="stop-color:#A96F0C"/>
			<stop  offset="0.1904" style="stop-color:#FEC329"/>
			<stop  offset="0.3985" style="stop-color:#FFE97A"/>
			<stop  offset="0.6218" style="stop-color:#B37603"/>
			<stop  offset="1" style="stop-color:#FFC025"/>
		</linearGradient>
		<path class="st17" d="M807.72,1135.98c2.91,1.59,5.2,3.79,6.86,6.6c1.66,2.81,2.49,5.98,2.49,9.5c0,3.53-0.83,6.69-2.49,9.5
			c-1.66,2.81-3.95,5.01-6.86,6.6c-2.91,1.59-6.18,2.39-9.8,2.39c-3.18,0-6.11-0.61-8.76-1.83c-2.66-1.22-4.86-2.92-6.61-5.13
			c-1.74-2.2-2.9-4.72-3.48-7.57h-3.71v13.82h-9.9v-35.56h9.9v13.31h3.81c0.64-2.78,1.85-5.22,3.61-7.34
			c1.76-2.12,3.95-3.76,6.56-4.93c2.61-1.17,5.47-1.75,8.58-1.75C801.54,1133.59,804.8,1134.39,807.72,1135.98z M802.49,1160.97
			c1.35-0.85,2.43-2.03,3.22-3.56c0.8-1.52,1.2-3.3,1.2-5.34c0-2.03-0.4-3.81-1.2-5.33c-0.79-1.52-1.87-2.71-3.22-3.56
			c-1.36-0.84-2.88-1.27-4.57-1.27c-1.69,0-3.22,0.41-4.6,1.25c-1.37,0.83-2.46,2.01-3.25,3.56c-0.8,1.54-1.2,3.33-1.2,5.35
			c0,2.03,0.4,3.82,1.2,5.36c0.79,1.54,1.88,2.73,3.25,3.56c1.37,0.83,2.9,1.25,4.6,1.25
			C799.61,1162.24,801.13,1161.81,802.49,1160.97z"/>
		<linearGradient id="SVGID_18_" gradientUnits="userSpaceOnUse" x1="324.4195" y1="1302.8893" x2="1584.9489" y2="925.0402">
			<stop  offset="0" style="stop-color:#A96F0C"/>
			<stop  offset="0.1904" style="stop-color:#FEC329"/>
			<stop  offset="0.3985" style="stop-color:#FFE97A"/>
			<stop  offset="0.6218" style="stop-color:#B37603"/>
			<stop  offset="1" style="stop-color:#FFC025"/>
		</linearGradient>
		<path class="st18" d="M847.14,1135.9c2.37,1.07,4.2,2.59,5.49,4.57c1.29,1.98,1.93,4.31,1.93,6.99c0,2.68-0.64,4.99-1.93,6.96
			c-1.29,1.96-3.11,3.48-5.49,4.54c-2.37,1.07-5.17,1.6-8.38,1.6h-6.19v9.3H822.5v-35.56h16.25
			C841.98,1134.3,844.77,1134.83,847.14,1135.9z M842.83,1151.29c1.05-0.9,1.57-2.17,1.57-3.83s-0.53-2.95-1.57-3.86
			c-1.05-0.91-2.61-1.37-4.68-1.37h-5.58v10.42h5.58C840.22,1152.64,841.77,1152.19,842.83,1151.29z"/>
		<linearGradient id="SVGID_19_" gradientUnits="userSpaceOnUse" x1="328.4232" y1="1316.2461" x2="1588.9526" y2="938.3969">
			<stop  offset="0" style="stop-color:#A96F0C"/>
			<stop  offset="0.1904" style="stop-color:#FEC329"/>
			<stop  offset="0.3985" style="stop-color:#FFE97A"/>
			<stop  offset="0.6218" style="stop-color:#B37603"/>
			<stop  offset="1" style="stop-color:#FFC025"/>
		</linearGradient>
		<path class="st19" d="M859.08,1134.3h9.91v20.88l14.69-20.88h9.45v35.56h-9.9v-20.83l-14.63,20.83h-9.5V1134.3z"/>
		<linearGradient id="SVGID_20_" gradientUnits="userSpaceOnUse" x1="333.2004" y1="1332.1833" x2="1593.7299" y2="954.3342">
			<stop  offset="0" style="stop-color:#A96F0C"/>
			<stop  offset="0.1904" style="stop-color:#FEC329"/>
			<stop  offset="0.3985" style="stop-color:#FFE97A"/>
			<stop  offset="0.6218" style="stop-color:#B37603"/>
			<stop  offset="1" style="stop-color:#FFC025"/>
		</linearGradient>
		<path class="st20" d="M938.83,1161.88v15.14h-9.19v-7.16h-22.76v7.16h-9.25v-15.14h1.28c2.1-0.03,3.58-1.48,4.44-4.32
			c0.86-2.84,1.4-6.94,1.6-12.29l0.4-10.97H934v27.58H938.83z M912.82,1155.79c-0.47,2.64-1.2,4.67-2.18,6.1h13.46v-19.61h-10.21
			l-0.16,3.86C913.6,1149.93,913.3,1153.14,912.82,1155.79z"/>
		<linearGradient id="SVGID_21_" gradientUnits="userSpaceOnUse" x1="335.3961" y1="1339.5083" x2="1595.9257" y2="961.6592">
			<stop  offset="0" style="stop-color:#A96F0C"/>
			<stop  offset="0.1904" style="stop-color:#FEC329"/>
			<stop  offset="0.3985" style="stop-color:#FFE97A"/>
			<stop  offset="0.6218" style="stop-color:#B37603"/>
			<stop  offset="1" style="stop-color:#FFC025"/>
		</linearGradient>
		<path class="st21" d="M943.66,1134.3h9.9v20.88l14.69-20.88h9.45v35.56h-9.91v-20.83l-14.63,20.83h-9.5V1134.3z"/>
		<linearGradient id="SVGID_22_" gradientUnits="userSpaceOnUse" x1="338.5328" y1="1349.9724" x2="1599.0623" y2="972.1234">
			<stop  offset="0" style="stop-color:#A96F0C"/>
			<stop  offset="0.1904" style="stop-color:#FEC329"/>
			<stop  offset="0.3985" style="stop-color:#FFE97A"/>
			<stop  offset="0.6218" style="stop-color:#B37603"/>
			<stop  offset="1" style="stop-color:#FFC025"/>
		</linearGradient>
		<path class="st22" d="M1015.13,1134.3v35.56h-9.9v-12.09c-2.75,0.91-5.27,1.37-7.57,1.37c-4.98,0-8.78-1.19-11.4-3.58
			c-2.63-2.39-3.94-5.83-3.94-10.34v-10.92h9.9v9.8c0,4.57,2.23,6.86,6.71,6.86c2.44,0,4.53-0.41,6.3-1.22v-15.44H1015.13z"/>
		<linearGradient id="SVGID_23_" gradientUnits="userSpaceOnUse" x1="341.691" y1="1360.5085" x2="1602.2205" y2="982.6594">
			<stop  offset="0" style="stop-color:#A96F0C"/>
			<stop  offset="0.1904" style="stop-color:#FEC329"/>
			<stop  offset="0.3985" style="stop-color:#FFE97A"/>
			<stop  offset="0.6218" style="stop-color:#B37603"/>
			<stop  offset="1" style="stop-color:#FFC025"/>
		</linearGradient>
		<path class="st23" d="M1051.3,1162.08v7.77h-28.55v-35.56h27.89v7.77h-17.93v5.99h15.8v7.52h-15.8v6.5H1051.3z"/>
		<linearGradient id="SVGID_24_" gradientUnits="userSpaceOnUse" x1="344.7678" y1="1370.7727" x2="1605.2972" y2="992.9235">
			<stop  offset="0" style="stop-color:#A96F0C"/>
			<stop  offset="0.1904" style="stop-color:#FEC329"/>
			<stop  offset="0.3985" style="stop-color:#FFE97A"/>
			<stop  offset="0.6218" style="stop-color:#B37603"/>
			<stop  offset="1" style="stop-color:#FFC025"/>
		</linearGradient>
		<path class="st24" d="M1064.28,1168.21c-2.96-1.57-5.29-3.77-6.99-6.58c-1.69-2.82-2.54-6-2.54-9.55c0-3.56,0.84-6.74,2.54-9.55
			c1.69-2.81,4.02-5,6.99-6.58s6.31-2.36,10.03-2.36c3.25,0,6.18,0.57,8.79,1.73c2.61,1.15,4.77,2.81,6.5,4.98l-6.41,5.79
			c-2.3-2.78-5.1-4.17-8.38-4.17c-1.93,0-3.65,0.43-5.16,1.27c-1.51,0.84-2.68,2.04-3.5,3.58c-0.83,1.55-1.25,3.32-1.25,5.31
			c0,2,0.42,3.77,1.25,5.31c0.83,1.55,2,2.73,3.5,3.59c1.51,0.84,3.23,1.27,5.16,1.27c3.28,0,6.08-1.39,8.38-4.17l6.41,5.79
			c-1.73,2.17-3.9,3.83-6.5,4.98s-5.54,1.73-8.79,1.73C1070.59,1170.57,1067.25,1169.78,1064.28,1168.21z"/>
		<linearGradient id="SVGID_25_" gradientUnits="userSpaceOnUse" x1="347.7825" y1="1380.83" x2="1608.312" y2="1002.9809">
			<stop  offset="0" style="stop-color:#A96F0C"/>
			<stop  offset="0.1904" style="stop-color:#FEC329"/>
			<stop  offset="0.3985" style="stop-color:#FFE97A"/>
			<stop  offset="0.6218" style="stop-color:#B37603"/>
			<stop  offset="1" style="stop-color:#FFC025"/>
		</linearGradient>
		<path class="st25" d="M1108.5,1156.24h-4.57v13.62h-10.01v-35.56h10.01v13.82h4.83l8.48-13.82h10.57l-11.12,17.17l11.23,18.39
			h-11.33L1108.5,1156.24z"/>
		<linearGradient id="SVGID_26_" gradientUnits="userSpaceOnUse" x1="350.8545" y1="1391.0785" x2="1611.384" y2="1013.2293">
			<stop  offset="0" style="stop-color:#A96F0C"/>
			<stop  offset="0.1904" style="stop-color:#FEC329"/>
			<stop  offset="0.3985" style="stop-color:#FFE97A"/>
			<stop  offset="0.6218" style="stop-color:#B37603"/>
			<stop  offset="1" style="stop-color:#FFC025"/>
		</linearGradient>
		<path class="st26" d="M1131.16,1134.3h9.91v20.88l14.69-20.88h9.45v35.56h-9.91v-20.83l-14.63,20.83h-9.5V1134.3z"/>
		<linearGradient id="SVGID_27_" gradientUnits="userSpaceOnUse" x1="354.5899" y1="1403.54" x2="1615.1194" y2="1025.6909">
			<stop  offset="0" style="stop-color:#A96F0C"/>
			<stop  offset="0.1904" style="stop-color:#FEC329"/>
			<stop  offset="0.3985" style="stop-color:#FFE97A"/>
			<stop  offset="0.6218" style="stop-color:#B37603"/>
			<stop  offset="1" style="stop-color:#FFC025"/>
		</linearGradient>
		<path class="st27" d="M1204.86,1169.86l-0.05-18.84l-9.15,15.34h-4.47l-9.14-14.94v18.44h-9.24v-35.56h8.28l12.5,20.52
			l12.19-20.52h8.28l0.09,35.56H1204.86z"/>
		<linearGradient id="SVGID_28_" gradientUnits="userSpaceOnUse" x1="359.6909" y1="1420.5573" x2="1620.2203" y2="1042.7081">
			<stop  offset="0" style="stop-color:#A96F0C"/>
			<stop  offset="0.1904" style="stop-color:#FEC329"/>
			<stop  offset="0.3985" style="stop-color:#FFE97A"/>
			<stop  offset="0.6218" style="stop-color:#B37603"/>
			<stop  offset="1" style="stop-color:#FFC025"/>
		</linearGradient>
		<path class="st28" d="M1269.68,1134.3v35.56h-9.91v-27.58h-10.22l-0.2,5.79c-0.17,5.08-0.59,9.21-1.25,12.39
			c-0.65,3.18-1.78,5.65-3.38,7.39c-1.59,1.74-3.84,2.61-6.74,2.61c-1.36,0-2.88-0.2-4.57-0.61l0.55-8.23
			c0.45,0.1,0.9,0.15,1.38,0.15c1.32,0,2.33-0.52,3.05-1.57c0.71-1.05,1.22-2.52,1.53-4.4c0.3-1.88,0.51-4.33,0.61-7.34l0.51-14.17
			H1269.68z"/>
		<linearGradient id="SVGID_29_" gradientUnits="userSpaceOnUse" x1="362.9029" y1="1431.2727" x2="1623.4324" y2="1053.4236">
			<stop  offset="0" style="stop-color:#A96F0C"/>
			<stop  offset="0.1904" style="stop-color:#FEC329"/>
			<stop  offset="0.3985" style="stop-color:#FFE97A"/>
			<stop  offset="0.6218" style="stop-color:#B37603"/>
			<stop  offset="1" style="stop-color:#FFC025"/>
		</linearGradient>
		<path class="st29" d="M1277.3,1134.3h9.91v20.88l14.69-20.88h9.45v35.56h-9.9v-20.83l-14.63,20.83h-9.5V1134.3z"/>
		<linearGradient id="SVGID_30_" gradientUnits="userSpaceOnUse" x1="367.5139" y1="1446.655" x2="1628.0433" y2="1068.8059">
			<stop  offset="0" style="stop-color:#A96F0C"/>
			<stop  offset="0.1904" style="stop-color:#FEC329"/>
			<stop  offset="0.3985" style="stop-color:#FFE97A"/>
			<stop  offset="0.6218" style="stop-color:#B37603"/>
			<stop  offset="1" style="stop-color:#FFC025"/>
		</linearGradient>
		<path class="st30" d="M1357.31,1161.88v15.24h-9.19v-7.26h-29.16v-35.56h9.91v27.58h13.67v-27.58h9.9v27.58H1357.31z"/>
		<linearGradient id="SVGID_31_" gradientUnits="userSpaceOnUse" x1="370.5821" y1="1456.891" x2="1631.1116" y2="1079.0419">
			<stop  offset="0" style="stop-color:#A96F0C"/>
			<stop  offset="0.1904" style="stop-color:#FEC329"/>
			<stop  offset="0.3985" style="stop-color:#FFE97A"/>
			<stop  offset="0.6218" style="stop-color:#B37603"/>
			<stop  offset="1" style="stop-color:#FFC025"/>
		</linearGradient>
		<path class="st31" d="M1387.03,1162.95h-15.04l-2.79,6.91h-10.26l15.7-35.56h9.91l15.74,35.56h-10.46L1387.03,1162.95z
			 M1384.08,1155.53l-4.57-11.38l-4.57,11.38H1384.08z"/>
		<linearGradient id="SVGID_32_" gradientUnits="userSpaceOnUse" x1="373.679" y1="1467.2224" x2="1634.2085" y2="1089.3733">
			<stop  offset="0" style="stop-color:#A96F0C"/>
			<stop  offset="0.1904" style="stop-color:#FEC329"/>
			<stop  offset="0.3985" style="stop-color:#FFE97A"/>
			<stop  offset="0.6218" style="stop-color:#B37603"/>
			<stop  offset="1" style="stop-color:#FFC025"/>
		</linearGradient>
		<path class="st32" d="M1436.4,1169.86l-0.05-18.84l-9.15,15.34h-4.47l-9.15-14.94v18.44h-9.24v-35.56h8.27l12.5,20.52l12.19-20.52
			h8.28l0.09,35.56H1436.4z"/>
	</g>
	<g>
		<linearGradient id="SVGID_33_" gradientUnits="userSpaceOnUse" x1="540.9151" y1="624.7845" x2="1045.9399" y2="3.4508">
			<stop  offset="0" style="stop-color:#A96F0C"/>
			<stop  offset="0.1904" style="stop-color:#FEC329"/>
			<stop  offset="0.3985" style="stop-color:#FFE97A"/>
			<stop  offset="0.6218" style="stop-color:#B37603"/>
			<stop  offset="1" style="stop-color:#FFC025"/>
		</linearGradient>
		<path class="st33" d="M933.8,49.2C878.17,17,814.6,0,749.99,0C685.37,0,621.8,17,566.17,49.2
			c-113.33,65.55-183.76,187.56-183.76,318.38c0,126.14,65.47,244.07,171.74,311.09c3.94,2.52,7.96,4.93,12.02,7.28
			c55.63,32.19,119.17,49.2,183.82,49.2c64.62,0,128.18-17,183.82-49.2c4.05-2.35,8.08-4.79,12.02-7.28
			c106.28-67.05,171.74-184.98,171.74-311.09C1117.56,236.76,1047.14,114.75,933.8,49.2z M943.3,621.82
			c-10.66,8.13-21.88,15.62-33.64,22.42c-4.05,2.35-8.16,4.62-12.33,6.77c-0.48,0.26-0.96,0.51-1.45,0.74
			c-1.45,0.77-2.92,1.5-4.39,2.21c-1.64,0.82-3.32,1.64-4.96,2.41c-1.22,0.6-2.44,1.16-3.66,1.7c-2.35,1.11-4.73,2.15-7.14,3.17
			c-0.37,0.17-0.77,0.31-1.13,0.48c-2.41,1.02-4.85,2.01-7.28,2.98c-2.61,1.02-5.24,2.01-7.88,2.98c-2.64,0.96-5.3,1.9-7.96,2.78
			c-1.25,0.43-2.47,0.85-3.71,1.22c-1.67,0.54-3.32,1.08-4.96,1.56c-1.67,0.51-3.34,0.99-5.02,1.47c-1.67,0.48-3.34,0.96-5.02,1.39
			c-1.67,0.45-3.37,0.88-5.04,1.3c-1.47,0.37-2.95,0.74-4.45,1.11c-3.57,0.82-7.2,1.62-10.83,2.32c-1.16,0.25-2.35,0.48-3.54,0.68
			c-6.38,1.19-12.84,2.21-19.33,3c-1.19,0.17-2.38,0.31-3.6,0.42c-5.19,0.6-10.43,1.05-15.67,1.39c-1.53,0.11-3.03,0.2-4.56,0.26
			c-0.79,0.06-1.62,0.09-2.44,0.11c-4.42,0.2-8.87,0.28-13.32,0.28c-4.45,0-8.9-0.09-13.32-0.28c-0.82-0.03-1.64-0.06-2.44-0.11
			c-1.53-0.06-3.03-0.14-4.56-0.26c-5.24-0.34-10.49-0.79-15.67-1.39c-1.22-0.11-2.41-0.25-3.6-0.42c-6.49-0.79-12.95-1.81-19.33-3
			c-1.19-0.2-2.38-0.43-3.54-0.68c-3.63-0.71-7.26-1.5-10.83-2.32c-1.5-0.37-2.98-0.74-4.45-1.11c-1.67-0.43-3.37-0.85-5.04-1.3
			c-1.67-0.42-3.34-0.91-5.02-1.39c-1.67-0.48-3.34-0.96-5.02-1.47c-1.64-0.48-3.29-1.02-4.96-1.56c-1.25-0.37-2.47-0.79-3.71-1.22
			c-2.18-0.71-4.34-1.47-6.49-2.24c-0.25-0.09-0.51-0.17-0.77-0.28c-2.41-0.85-4.82-1.76-7.2-2.69c-1.81-0.71-3.6-1.42-5.41-2.15
			c-0.96-0.4-1.9-0.79-2.86-1.22c-1.98-0.82-3.97-1.67-5.92-2.55c-1.19-0.51-2.38-1.08-3.57-1.62c-1.7-0.79-3.4-1.59-5.1-2.41
			c-0.79-0.4-1.62-0.79-2.44-1.19c-2.04-0.99-4.08-2.04-6.09-3.09c-4.17-2.15-8.28-4.42-12.36-6.77
			c-11.76-6.8-22.98-14.28-33.61-22.42C489.54,570.63,445.1,494.45,433.6,410.93c-1.98-14.28-3-28.77-3-43.36
			c0-14.6,1.02-29.08,3-43.36c11.51-83.52,55.94-159.7,123.08-210.88c10.66-8.13,21.88-15.62,33.64-22.42
			c4.08-2.35,8.19-4.62,12.36-6.77c45.23-23.58,95.88-35.96,147.31-35.96c51.44,0,102.08,12.38,147.31,35.96
			c4.17,2.15,8.28,4.42,12.36,6.77c11.76,6.8,22.98,14.28,33.64,22.42c67.14,51.18,111.58,127.36,123.08,210.88
			c1.98,14.28,3,28.77,3,43.36c0,14.6-1.02,29.08-3,43.36C1054.87,494.45,1010.43,570.63,943.3,621.82z"/>
		<linearGradient id="SVGID_34_" gradientUnits="userSpaceOnUse" x1="454.8186" y1="554.8046" x2="959.8434" y2="-66.5291">
			<stop  offset="0" style="stop-color:#A96F0C"/>
			<stop  offset="0.1904" style="stop-color:#FEC329"/>
			<stop  offset="0.3985" style="stop-color:#FFE97A"/>
			<stop  offset="0.6218" style="stop-color:#B37603"/>
			<stop  offset="1" style="stop-color:#FFC025"/>
		</linearGradient>
		<path class="st34" d="M863.12,148.02c-8.45,30.98-21.94,60.45-40.1,87.29c-19.55,28.88-44.58,54.53-73.03,74.96
			c-28.43-20.41-53.48-46.08-73.03-74.93c-11.48-16.95-21.09-34.97-28.74-53.73C706.23,115.26,792.33,224.63,863.12,148.02z"/>
		<g>
			<linearGradient id="SVGID_35_" gradientUnits="userSpaceOnUse" x1="427.2499" y1="532.3965" x2="932.2747" y2="-88.9371">
				<stop  offset="0" style="stop-color:#A96F0C"/>
				<stop  offset="0.1904" style="stop-color:#FEC329"/>
				<stop  offset="0.3985" style="stop-color:#FFE97A"/>
				<stop  offset="0.6218" style="stop-color:#B37603"/>
				<stop  offset="1" style="stop-color:#FFC025"/>
			</linearGradient>
			<path class="st35" d="M945.82,70.06c0,14.54-0.85,28.99-2.52,43.28c-6.12,52.15-23.27,102.14-50.59,147.11
				c-3.12,5.21-6.4,10.34-9.83,15.39c-6.23,9.21-12.89,18.14-19.95,26.75c-20.07,24.49-43.3,46.39-68.87,64.98
				c-10.32,7.51-21,14.48-32.02,20.86l-12.04,6.97l-12.07-6.97c-11.02-6.38-21.71-13.35-32.02-20.86
				c-25.56-18.59-48.8-40.53-68.84-65.01c-7.06-8.59-13.72-17.51-19.95-26.7c-3.43-5.07-6.72-10.2-9.86-15.42
				c-27.32-45-44.44-95-50.56-147.11c-1.67-14.28-2.52-28.74-2.52-43.28h48.18c0,4.7,0.11,9.41,0.34,14.09
				c2.52,59.06,21.2,115.74,54.33,164.71c24.4,36.02,56.37,67.11,92.98,90.52c36.62-23.41,68.58-54.5,92.98-90.55
				c33.13-48.94,51.81-105.62,54.33-164.69c0.23-4.68,0.34-9.38,0.34-14.09H945.82z"/>
		</g>
		<linearGradient id="SVGID_36_" gradientUnits="userSpaceOnUse" x1="657.9957" y1="719.9485" x2="1163.0205" y2="98.6149">
			<stop  offset="0" style="stop-color:#A96F0C"/>
			<stop  offset="0.1904" style="stop-color:#FEC329"/>
			<stop  offset="0.3985" style="stop-color:#FFE97A"/>
			<stop  offset="0.6218" style="stop-color:#B37603"/>
			<stop  offset="1" style="stop-color:#FFC025"/>
		</linearGradient>
		<path class="st36" d="M943.3,621.82c-6.12-52.15-23.27-102.14-50.59-147.14c-3.12-5.19-6.4-10.32-9.83-15.39
			c-6.23-9.21-12.89-18.11-19.95-26.72c-20.07-24.49-43.3-46.39-68.87-64.98c-10.32-7.51-21-14.48-32.02-20.86l-12.04-6.97
			l-12.07,6.97c-11.02,6.38-21.71,13.35-32.02,20.86c-25.56,18.59-48.77,40.53-68.84,65.01c-7.06,8.59-13.72,17.51-19.95,26.72
			c-3.43,5.04-6.72,10.17-9.83,15.39c-0.03,0.03,0,0.03,0,0.03c-27.32,44.98-44.47,94.94-50.59,147.09
			c-1.67,14.28-2.52,28.74-2.52,43.28v13.89l12.02,6.97c55.63,32.19,119.17,49.2,183.82,49.2c64.62,0,128.18-17,183.82-49.2
			l12.02-6.97v-13.89C945.82,650.55,944.97,636.1,943.3,621.82z M895.88,651.74c-1.45,0.77-2.92,1.5-4.39,2.21
			c-1.64,0.82-3.32,1.64-4.96,2.41c-1.22,0.6-2.44,1.16-3.66,1.7c-2.35,1.11-4.73,2.15-7.14,3.17c-0.37,0.17-0.77,0.31-1.13,0.48
			c-2.41,1.02-4.85,2.01-7.28,2.98c-2.61,1.05-5.24,2.04-7.88,2.98c-2.64,0.99-5.3,1.9-7.96,2.78c-1.25,0.43-2.47,0.85-3.71,1.22
			c-1.67,0.54-3.32,1.08-4.96,1.56c-1.67,0.51-3.34,1.02-5.02,1.47c-1.67,0.48-3.34,0.96-5.02,1.39c-1.67,0.45-3.37,0.91-5.04,1.3
			c-1.47,0.37-2.95,0.74-4.45,1.11c-3.57,0.82-7.2,1.62-10.83,2.32c-1.16,0.25-2.35,0.48-3.54,0.68c-6.38,1.19-12.84,2.21-19.33,3
			c-1.19,0.17-2.38,0.31-3.6,0.42c-5.19,0.6-10.43,1.05-15.67,1.39c-1.53,0.11-3.03,0.2-4.56,0.26c-0.79,0.06-1.62,0.09-2.44,0.11
			c-4.42,0.2-8.87,0.28-13.32,0.28c-4.45,0-8.9-0.09-13.32-0.28c-0.82-0.03-1.64-0.06-2.44-0.11c-1.53-0.06-3.03-0.14-4.56-0.26
			c-5.24-0.34-10.49-0.79-15.67-1.39c-1.22-0.11-2.41-0.25-3.6-0.42c-6.49-0.79-12.95-1.81-19.33-3c-1.19-0.2-2.38-0.43-3.54-0.68
			c-3.63-0.71-7.26-1.5-10.83-2.32c-1.5-0.37-2.98-0.74-4.45-1.11c-1.67-0.4-3.37-0.85-5.04-1.3c-1.67-0.42-3.34-0.91-5.02-1.39
			c-1.67-0.45-3.34-0.96-5.02-1.47c-1.64-0.48-3.29-1.02-4.96-1.56c-1.25-0.37-2.47-0.79-3.71-1.22c-2.18-0.71-4.34-1.45-6.49-2.24
			c-0.25-0.09-0.51-0.17-0.77-0.28c-2.41-0.85-4.82-1.76-7.2-2.69c-1.81-0.68-3.63-1.42-5.41-2.15c-0.96-0.4-1.9-0.79-2.86-1.22
			c-1.98-0.82-3.97-1.67-5.92-2.55c-1.19-0.51-2.38-1.08-3.57-1.62c-1.7-0.79-3.4-1.59-5.1-2.41c-0.79-0.4-1.62-0.79-2.44-1.19
			c-2.04-0.99-4.08-2.04-6.09-3.09c2.55-59.06,21.23-115.74,54.36-164.69c24.4-36.05,56.37-67.14,92.98-90.55
			c36.62,23.41,68.58,54.5,92.98,90.52c33.13,48.97,51.81,105.65,54.36,164.71C896.85,651.26,896.36,651.52,895.88,651.74z"/>
		<linearGradient id="SVGID_37_" gradientUnits="userSpaceOnUse" x1="657.5344" y1="719.5735" x2="1162.5592" y2="98.2399">
			<stop  offset="0" style="stop-color:#A96F0C"/>
			<stop  offset="0.1904" style="stop-color:#FEC329"/>
			<stop  offset="0.3985" style="stop-color:#FFE97A"/>
			<stop  offset="0.6218" style="stop-color:#B37603"/>
			<stop  offset="1" style="stop-color:#FFC025"/>
		</linearGradient>
		<path class="st37" d="M872.16,636.47c-2.04,0.91-4,1.79-5.92,2.61c0,0-0.94,0.4-1.25,0.54c-2.18,0.91-4.36,1.81-6.55,2.66
			c-2.35,0.94-4.82,1.84-7.28,2.75c-2.41,0.88-4.82,1.73-7.26,2.55l-0.34,0.11c-1.02,0.34-2.04,0.68-3.09,0.99l-0.62,0.23
			c-1.3,0.4-2.55,0.82-3.83,1.19l-0.28,0.09c-1.53,0.45-3.09,0.91-4.62,1.36c-1.56,0.45-3.12,0.85-4.65,1.28
			c-1.25,0.34-2.52,0.65-3.8,0.99l-5.02,1.25c-3.23,0.74-6.55,1.47-9.83,2.1l-3.37,0.65c-6.06,1.13-12.04,2.07-17.8,2.78l-0.45,0.06
			c-0.79,0.11-1.59,0.2-2.41,0.28l-0.57,0.06c-4.51,0.51-9.38,0.96-14.48,1.28c-1.45,0.11-2.66,0.2-3.88,0.23l-0.82,0.06
			c-0.51,0.03-1.02,0.03-1.56,0.06c-4.11,0.2-8.22,0.28-12.5,0.28c-4.28,0-8.39-0.09-12.24-0.28c-0.79-0.03-1.3-0.03-1.81-0.06
			l-0.82-0.06c-1.22-0.03-2.44-0.11-3.63-0.2c-5.36-0.34-10.23-0.79-14.74-1.3l-0.57-0.06c-0.82-0.09-1.62-0.17-2.41-0.28
			l-0.45-0.06c-5.75-0.71-11.73-1.64-17.83-2.78l-3.46-0.65c-3.17-0.62-6.49-1.36-9.72-2.1l-5.07-1.28
			c-1.25-0.31-2.52-0.62-3.77-0.96c-1.5-0.43-3.06-0.82-4.62-1.28c-1.53-0.45-3.09-0.91-4.62-1.36l-0.28-0.09
			c-1.25-0.37-2.52-0.79-3.8-1.19l-0.54-0.17c-1.13-0.37-2.18-0.71-3.2-1.05l-0.45-0.17c-1.9-0.6-3.74-1.28-5.61-1.93l-0.17-0.09
			l-0.91-0.31c-2.15-0.77-4.28-1.56-6.4-2.38c-1.76-0.71-3.43-1.36-5.13-2.07c-0.71-0.28-1.45-0.6-2.21-0.94l-0.54-0.23
			c-1.76-0.74-3.51-1.47-5.27-2.27l-0.34-0.14c-0.51-0.23-1.05-0.48-1.56-0.71c0.37-3.91,0.82-7.82,1.36-11.73
			c13.23,1.42,30.49-0.43,37.61-17.23c10.51-24.94,17.74-25.56,47.67-39.68c27.21-12.81,33.9-100.55,35.54-142.95
			c1.64,42.4,8.33,130.14,35.54,142.95c29.96,14.11,37.15,14.74,47.7,39.68c7.09,16.81,24.34,18.65,37.58,17.23
			C871.34,628.65,871.79,632.56,872.16,636.47z"/>
		<g>
			<linearGradient id="SVGID_38_" gradientUnits="userSpaceOnUse" x1="617.135" y1="686.7366" x2="1122.1599" y2="65.403">
				<stop  offset="0" style="stop-color:#A96F0C"/>
				<stop  offset="0.1904" style="stop-color:#FEC329"/>
				<stop  offset="0.3985" style="stop-color:#FFE97A"/>
				<stop  offset="0.6218" style="stop-color:#B37603"/>
				<stop  offset="1" style="stop-color:#FFC025"/>
			</linearGradient>
			<path class="st38" d="M880.53,489.24l-35.22-32.87c22.56-24.17,34.98-55.71,34.98-88.79s-12.42-64.62-34.98-88.79l35.22-32.87
				c30.91,33.13,47.94,76.33,47.94,121.66S911.45,456.11,880.53,489.24z"/>
		</g>
		<g>
			<linearGradient id="SVGID_39_" gradientUnits="userSpaceOnUse" x1="464.7037" y1="562.8392" x2="969.7286" y2="-58.4944">
				<stop  offset="0" style="stop-color:#A96F0C"/>
				<stop  offset="0.1904" style="stop-color:#FEC329"/>
				<stop  offset="0.3985" style="stop-color:#FFE97A"/>
				<stop  offset="0.6218" style="stop-color:#B37603"/>
				<stop  offset="1" style="stop-color:#FFC025"/>
			</linearGradient>
			<path class="st39" d="M619.44,489.24c-30.91-33.13-47.94-76.33-47.94-121.66s17.02-88.54,47.94-121.66l35.22,32.87
				c-22.56,24.17-34.98,55.71-34.98,88.79s12.42,64.62,34.98,88.79L619.44,489.24z"/>
		</g>
		<g>
			<g>
				<linearGradient id="SVGID_40_" gradientUnits="userSpaceOnUse" x1="391.0167" y1="502.9459" x2="896.0416" y2="-118.3877">
					<stop  offset="0" style="stop-color:#A96F0C"/>
					<stop  offset="0.1904" style="stop-color:#FEC329"/>
					<stop  offset="0.3985" style="stop-color:#FFE97A"/>
					<stop  offset="0.6218" style="stop-color:#B37603"/>
					<stop  offset="1" style="stop-color:#FFC025"/>
				</linearGradient>
				<path class="st40" d="M575.58,329.48c-17.32-14.48-44.27-23.81-74.54-23.81c-26.41,0-50.3,7.09-67.45,18.53
					c-16.78,11.17-27.09,26.47-27.09,43.36s10.32,32.19,27.09,43.36c17.15,11.45,41.04,18.53,67.45,18.53
					c30.27,0,57.22-9.32,74.54-23.81c12.55-10.51,20.01-23.72,20.01-38.09S588.13,340,575.58,329.48z M557.27,373.5h-12.81
					c-0.4,5.98-1.42,11.65-3.06,16.98c-1.62,5.36-3.63,9.78-6.04,13.29l-17.46-7.79c2.47-3.74,4.48-8.08,5.98-13.04
					c1.53-4.93,2.27-9.81,2.27-14.6c0-9.07-2.27-13.63-6.8-13.63c-2.41,0-4.17,1.3-5.33,3.88c-1.16,2.61-2.38,6.77-3.66,12.53
					c-1.36,6.29-2.81,11.56-4.36,15.79s-4.05,7.85-7.48,10.88c-3.43,3.03-8.05,4.53-13.86,4.53c-6.86,0-12.75-2.47-17.66-7.43
					c-4.9-4.93-7.91-12.07-9.01-21.4h-13.18v-14.37h12.92c0.4-4.53,1.19-8.9,2.41-13.09c1.19-4.17,2.75-7.91,4.65-11.17l17.57,7.28
					c-4.28,7.96-6.43,15.7-6.43,23.21c0,4.7,0.68,8.13,2.07,10.29c1.42,2.15,3.23,3.23,5.44,3.23c2.24,0,3.91-1.28,5.04-3.83
					c1.11-2.55,2.27-6.66,3.46-12.33c1.36-6.38,2.81-11.65,4.36-15.84c1.56-4.19,4.02-7.82,7.43-10.88c3.4-3.09,7.99-4.62,13.8-4.62
					c6.63,0,12.36,2.38,17.17,7.11c4.82,4.76,7.91,11.62,9.27,20.63h13.29V373.5z"/>
			</g>
			<g>
				<g>
					<linearGradient id="SVGID_41_" gradientUnits="userSpaceOnUse" x1="347.7924" y1="467.8129" x2="852.8173" y2="-153.5208">
						<stop  offset="0" style="stop-color:#A96F0C"/>
						<stop  offset="0.1904" style="stop-color:#FEC329"/>
						<stop  offset="0.3985" style="stop-color:#FFE97A"/>
						<stop  offset="0.6218" style="stop-color:#B37603"/>
						<stop  offset="1" style="stop-color:#FFC025"/>
					</linearGradient>
					<path class="st41" d="M545.6,218.64c17.05,9.84,25.68,26.8,19.29,37.88c-6.39,11.08-25.4,12.07-42.45,2.23
						s-25.68-26.8-19.29-37.88C509.55,209.8,528.55,208.8,545.6,218.64z"/>
				</g>
				<g>
					<linearGradient id="SVGID_42_" gradientUnits="userSpaceOnUse" x1="473.9505" y1="570.3552" x2="978.9754" y2="-50.9785">
						<stop  offset="0" style="stop-color:#A96F0C"/>
						<stop  offset="0.1904" style="stop-color:#FEC329"/>
						<stop  offset="0.3985" style="stop-color:#FFE97A"/>
						<stop  offset="0.6218" style="stop-color:#B37603"/>
						<stop  offset="1" style="stop-color:#FFC025"/>
					</linearGradient>
					<path class="st42" d="M545.6,516.51c17.05-9.84,25.68-26.8,19.29-37.88c-6.39-11.08-25.4-12.07-42.45-2.23
						s-25.68,26.8-19.29,37.88C509.55,525.35,528.55,526.35,545.6,516.51z"/>
				</g>
			</g>
		</g>
		<g>
			<g>
				<linearGradient id="SVGID_43_" gradientUnits="userSpaceOnUse" x1="690.8244" y1="746.632" x2="1195.8492" y2="125.2983">
					<stop  offset="0" style="stop-color:#A96F0C"/>
					<stop  offset="0.1904" style="stop-color:#FEC329"/>
					<stop  offset="0.3985" style="stop-color:#FFE97A"/>
					<stop  offset="0.6218" style="stop-color:#B37603"/>
					<stop  offset="1" style="stop-color:#FFC025"/>
				</linearGradient>
				<path class="st43" d="M1066.38,324.21c-17.15-11.45-41.04-18.53-67.45-18.53c-30.27,0-57.22,9.32-74.54,23.81
					c-12.55,10.51-20.01,23.72-20.01,38.09s7.45,27.58,20.01,38.09c17.32,14.48,44.27,23.81,74.54,23.81
					c26.41,0,50.3-7.09,67.45-18.53c16.78-11.17,27.09-26.47,27.09-43.36S1083.16,335.38,1066.38,324.21z M1055.16,376.02h-12.92
					c-0.4,4.53-1.19,8.9-2.41,13.09c-1.19,4.17-2.75,7.91-4.65,11.17l-17.6-7.28c4.31-7.96,6.46-15.7,6.46-23.21
					c0-4.7-0.68-8.13-2.1-10.29c-1.39-2.15-3.2-3.23-5.44-3.23c-2.21,0-3.91,1.28-5.02,3.83c-1.11,2.55-2.27,6.66-3.46,12.33
					c-1.36,6.38-2.83,11.65-4.36,15.84c-1.56,4.19-4.02,7.82-7.43,10.88c-3.4,3.09-7.99,4.62-13.83,4.62
					c-6.6,0-12.33-2.38-17.15-7.11c-4.82-4.76-7.91-11.62-9.27-20.63H942.7v-14.37h12.81c0.4-5.98,1.42-11.65,3.03-16.98
					c1.64-5.36,3.66-9.78,6.06-13.29l17.46,7.79c-2.47,3.74-4.48,8.08-5.98,13.04c-1.53,4.93-2.27,9.81-2.27,14.6
					c0,9.07,2.27,13.63,6.8,13.63c2.41,0,4.17-1.3,5.33-3.88c1.16-2.61,2.38-6.77,3.66-12.53c1.36-6.29,2.81-11.56,4.36-15.79
					c1.56-4.22,4.05-7.85,7.48-10.88c3.4-3.03,8.05-4.53,13.86-4.53c6.86,0,12.75,2.47,17.66,7.43c4.9,4.93,7.91,12.07,9.01,21.4
					h13.18V376.02z"/>
			</g>
			<g>
				<g>
					<linearGradient id="SVGID_44_" gradientUnits="userSpaceOnUse" x1="734.046" y1="781.7628" x2="1239.0709" y2="160.4292">
						<stop  offset="0" style="stop-color:#A96F0C"/>
						<stop  offset="0.1904" style="stop-color:#FEC329"/>
						<stop  offset="0.3985" style="stop-color:#FFE97A"/>
						<stop  offset="0.6218" style="stop-color:#B37603"/>
						<stop  offset="1" style="stop-color:#FFC025"/>
					</linearGradient>
					<path class="st44" d="M954.37,516.51c-17.05-9.84-25.68-26.8-19.29-37.88c6.39-11.08,25.4-12.07,42.45-2.23
						s25.68,26.8,19.29,37.88C990.42,525.35,971.42,526.35,954.37,516.51z"/>
				</g>
				<g>
					<linearGradient id="SVGID_45_" gradientUnits="userSpaceOnUse" x1="607.8879" y1="679.2205" x2="1112.9128" y2="57.8869">
						<stop  offset="0" style="stop-color:#A96F0C"/>
						<stop  offset="0.1904" style="stop-color:#FEC329"/>
						<stop  offset="0.3985" style="stop-color:#FFE97A"/>
						<stop  offset="0.6218" style="stop-color:#B37603"/>
						<stop  offset="1" style="stop-color:#FFC025"/>
					</linearGradient>
					<path class="st45" d="M954.37,218.64c-17.05,9.84-25.68,26.8-19.29,37.88c6.39,11.08,25.4,12.07,42.45,2.23
						s25.68-26.8,19.29-37.88C990.42,209.8,971.42,208.8,954.37,218.64z"/>
				</g>
			</g>
		</g>
	</g>
</g>
</svg>
