<svg width="16" height="14" viewBox="0 0 16 14" fill="none" xmlns="http://www.w3.org/2000/svg">
<path fill-rule="evenodd" clip-rule="evenodd" d="M2 2.16668H14C14.3682 2.16668 14.6667 2.46515 14.6667 2.83334V11.5C14.6667 11.8682 14.3682 12.1667 14 12.1667H2C1.63181 12.1667 1.33333 11.8682 1.33333 11.5V2.83334C1.33333 2.46515 1.63181 2.16668 2 2.16668ZM0 2.83334C0 1.72877 0.895431 0.833344 2 0.833344H14C15.1046 0.833344 16 1.72877 16 2.83334V11.5C16 12.6046 15.1046 13.5 14 13.5H2C0.895431 13.5 0 12.6046 0 11.5V2.83334ZM5.20007 6.16668H3.33333V8.03342H5.20007V6.16668ZM7.06698 6.16668H8.93372V8.03342H7.06698V6.16668ZM12.6667 6.16668H10.7999V8.03342H12.6667V6.16668Z" fill="#6F95AF"/>
</svg>
