<svg width="18" height="18" viewBox="0 0 18 18" fill="none" xmlns="http://www.w3.org/2000/svg">
<path fill-rule="evenodd" clip-rule="evenodd" d="M1.7563 14.7547V3.24528L6.73219 2.00294V15.9971L1.7563 14.7547ZM0 2.55942C0 2.15637 0.274378 1.80506 0.665429 1.70743L7.39761 0.0265854C7.95179 -0.111777 8.48848 0.307394 8.48848 0.87858V2.45216C8.54376 2.44126 8.60089 2.43555 8.65937 2.43555H12.5621C12.72 2.43555 12.8682 2.47725 12.9963 2.55025C13.3524 2.66225 13.6107 2.99501 13.6107 3.38809V5.96775C13.6107 6.45274 13.2175 6.8459 12.7325 6.8459C12.2475 6.8459 11.8544 6.45274 11.8544 5.96775V4.19184H8.65937C8.60089 4.19184 8.54376 4.18613 8.48848 4.17523V14.3868C8.54376 14.3759 8.60089 14.3702 8.65937 14.3702H11.8544V12.5942C11.8544 12.1092 12.2475 11.716 12.7325 11.716C13.2175 11.716 13.6107 12.1092 13.6107 12.5942V15.1738C13.6107 15.5668 13.3526 15.8994 12.9967 16.0115C12.8685 16.0847 12.7202 16.1264 12.5621 16.1264H8.65937C8.60089 16.1264 8.54376 16.1207 8.48848 16.1098V17.1214C8.48848 17.6926 7.95179 18.1118 7.39761 17.9734L0.665428 16.2926C0.274377 16.1949 0 15.8436 0 15.4406V2.55942ZM10.099 8.62958C9.61399 8.62958 9.22083 9.02274 9.22083 9.50773C9.22083 9.99271 9.61399 10.3859 10.099 10.3859H14.8076L14.429 10.764C14.0858 11.1067 14.0858 11.6624 14.429 12.0051C14.7721 12.3478 15.3285 12.3478 15.6717 12.0051L17.6636 10.0158L17.6726 10.007C18.0157 9.66426 18.0157 9.10861 17.6726 8.76589L15.6718 6.76776C15.3287 6.42505 14.7723 6.42505 14.4291 6.76776C14.0859 7.11047 14.0859 7.66612 14.4291 8.00884L15.0507 8.62958H10.099Z" fill="white"/>
</svg>
