<svg width="24" height="24" viewBox="0 0 24 24" fill="none" xmlns="http://www.w3.org/2000/svg">
<path fill-rule="evenodd" clip-rule="evenodd" d="M21.1895 4.08968L21.2279 4.05126C21.5812 3.69797 21.5812 3.12518 21.2279 2.77189C20.8746 2.4186 20.3018 2.4186 19.9486 2.77189L19.9101 2.81033C19.8286 2.41637 19.9407 1.99033 20.2465 1.68459L20.6199 1.31113L19.3088 0L18.9353 0.37346C17.8931 1.41566 17.7509 3.01703 18.5086 4.21182L17.9768 4.74367C16.782 3.98592 15.1806 4.12813 14.1385 5.17031L12.5385 6.77024C11.4963 7.81246 11.3541 9.41389 12.112 10.6087L11.6329 11.0878L12.9122 12.3672L13.3914 11.888C14.5862 12.6456 16.1874 12.5034 17.2296 11.4612L18.8295 9.86132C19.8717 8.81915 20.0139 7.21782 19.2561 6.02304L19.788 5.49118C20.9828 6.2489 22.5841 6.10666 23.6263 5.06447L23.9998 4.69101L22.6887 3.37988L22.3152 3.75334C22.0095 4.05906 21.5834 4.17118 21.1895 4.08968ZM16.1105 7.88936C16.4637 8.24264 17.0365 8.24264 17.3898 7.88936L17.8547 7.4245C17.9362 7.81845 17.8241 8.24446 17.5183 8.55018L15.9184 10.1501C15.6127 10.4558 15.1868 10.5679 14.7929 10.4865L15.2577 10.0217C15.611 9.66839 15.611 9.09559 15.2578 8.7423C14.9045 8.38902 14.3317 8.38902 13.9784 8.74231L13.5134 9.20729C13.4318 8.81328 13.5439 8.38715 13.8497 8.08137L15.4496 6.48144C15.7553 6.17571 16.1814 6.06361 16.5753 6.14512L16.1105 6.60999C15.7572 6.96328 15.7572 7.53607 16.1105 7.88936ZM6.77024 12.4376C7.81245 11.3954 9.41387 11.2532 10.6087 12.0111L11.0878 11.532L12.3672 12.8113L11.888 13.2905C12.6456 14.4853 12.5034 16.0865 11.4612 17.1287L9.86132 18.7286C8.81918 19.7707 7.21793 19.913 6.02316 19.1553L5.49116 19.6873C6.24891 20.8821 6.10668 22.4835 5.06449 23.5257L4.69101 23.8991L3.37988 22.588L3.75336 22.2145C4.05909 21.9088 4.1712 21.4828 4.08969 21.0888L4.05123 21.1273C3.69795 21.4805 3.12516 21.4805 2.77187 21.1273C2.41858 20.774 2.41858 20.2012 2.77187 19.8479L2.81031 19.8094C2.41636 19.7279 1.99034 19.8401 1.68462 20.1458L1.31113 20.5193L0 19.2081L0.373484 18.8347C1.41567 17.7925 3.017 17.6502 4.21179 18.408L4.74374 17.876C3.98591 16.6812 4.12809 15.0798 5.17031 14.0376L6.77024 12.4376ZM10.0217 15.1568L10.4865 14.692C10.5679 15.0859 10.4558 15.5118 10.1501 15.8175L8.55018 17.4175C8.24451 17.7231 7.81857 17.8353 7.42467 17.7538L7.88933 17.2892C8.24262 16.9359 8.24262 16.3631 7.88933 16.0098C7.53605 15.6565 6.96325 15.6565 6.60997 16.0098L6.14516 16.4746C6.06357 16.0806 6.17567 15.6545 6.48144 15.3487L8.08137 13.7488C8.38714 13.443 8.81325 13.3309 9.20725 13.4125L8.74229 13.8775C8.389 14.2308 8.38899 14.8036 8.74228 15.1568C9.09557 15.5101 9.66836 15.5101 10.0217 15.1568ZM14.5751 13.8472C14.5751 13.5141 14.9198 13.2441 15.3451 13.2441H18.4251C18.8503 13.2441 19.1951 13.5141 19.1951 13.8472C19.1951 14.1803 18.8503 14.4503 18.4251 14.4503H15.3451C14.9198 14.4503 14.5751 14.1803 14.5751 13.8472ZM14.5751 15.2202C14.5751 14.7949 14.3051 14.4502 13.972 14.4502C13.6389 14.4502 13.3689 14.7949 13.3689 15.2202L13.3689 18.3002C13.3689 18.7254 13.6389 19.0702 13.972 19.0702C14.3051 19.0702 14.5751 18.7254 14.5751 18.3002V15.2202ZM9.75038 10.2268C9.75038 10.5609 9.40564 10.8318 8.98038 10.8318H5.90038C5.47512 10.8318 5.13038 10.5609 5.13038 10.2268C5.13038 9.89264 5.47512 9.62177 5.90038 9.62177H8.98038C9.40564 9.62177 9.75038 9.89264 9.75038 10.2268ZM9.75038 8.85381C9.75038 9.27999 10.0212 9.62547 10.3554 9.62547C10.6895 9.62547 10.9604 9.27999 10.9604 8.85381V5.76714C10.9604 5.34096 10.6895 4.99547 10.3554 4.99547C10.0213 4.99547 9.75038 5.34096 9.75038 5.76714V8.85381Z" fill="url(#paint0_linear_3682_4987)"/>
<defs>
<linearGradient id="paint0_linear_3682_4987" x1="11.9999" y1="0" x2="11.9999" y2="23.8991" gradientUnits="userSpaceOnUse">
<stop stop-color="#3F74DB"/>
<stop offset="1" stop-color="#2BDFBE"/>
</linearGradient>
</defs>
</svg>
