<svg width="24" height="24" viewBox="0 0 24 24" fill="none" xmlns="http://www.w3.org/2000/svg">
<path fill-rule="evenodd" clip-rule="evenodd" d="M21.8571 6.62411C21.8571 6.39643 21.7661 6.17679 21.6054 6.01607L15.8411 0.251786C15.6804 0.0910715 15.4634 0 15.2357 0H3.85714C3.38304 0 3 0.383036 3 0.857143V23.1429C3 23.617 3.38304 24 3.85714 24H21C21.4741 24 21.8571 23.617 21.8571 23.1429V6.62411ZM4.92857 1.92857V22.0714H19.9286V8.83929H14.1429C13.8445 8.83929 13.5583 8.72076 13.3474 8.50978C13.1364 8.2988 13.0179 8.01265 13.0179 7.71429V1.92857H4.92857ZM17.5714 12.9107C17.6893 12.9107 17.7857 12.8143 17.7857 12.6964V11.4107C17.7857 11.2929 17.6893 11.1964 17.5714 11.1964H7.28571C7.16786 11.1964 7.07143 11.2929 7.07143 11.4107V12.6964C7.07143 12.7538 7.09425 12.806 7.13127 12.8446C7.17033 12.8853 7.2252 12.9107 7.28571 12.9107H17.5714ZM7.13127 14.9054C7.09425 14.944 7.07143 14.9962 7.07143 15.0536V16.3393C7.07143 16.4571 7.16786 16.5536 7.28571 16.5536H12.2143C12.3321 16.5536 12.4286 16.4571 12.4286 16.3393V15.0536C12.4286 14.9988 12.4078 14.9487 12.3737 14.9107C12.3344 14.8669 12.2774 14.8393 12.2143 14.8393H7.28571C7.2252 14.8393 7.17033 14.8647 7.13127 14.9054ZM14.8393 7.01786H19.8804L14.8393 1.97679V7.01786Z" fill="url(#paint0_linear_506_7875)"/>
<defs>
<linearGradient id="paint0_linear_506_7875" x1="12.4286" y1="0" x2="12.4286" y2="24" gradientUnits="userSpaceOnUse">
<stop stop-color="#3F74DB"/>
<stop offset="1" stop-color="#2BDFBE"/>
</linearGradient>
</defs>
</svg>
