<svg width="24" height="24" viewBox="0 0 24 24" fill="none" xmlns="http://www.w3.org/2000/svg">
<path fill-rule="evenodd" clip-rule="evenodd" d="M11 9.59999L9.5 11.6L9.2 12.1L8.7 12.3L2.2 15.3C2.18283 15.3172 2.16639 15.3343 2.15069 15.3515C2.14692 15.3556 2.14319 15.3598 2.13951 15.3639C1.97984 15.5426 1.9 15.7213 1.9 15.9V19.3H2L11.2 15L12 14.6L12.8 15L22 19.3527V16C22 15.8374 21.9339 15.6088 21.8018 15.4752C21.79 15.4633 21.7778 15.4522 21.765 15.4419C21.7446 15.4256 21.723 15.4115 21.7 15.4L15.2 12.4L14.7 12.2L14.4 11.7L13 9.59999H11ZM16 10.6L22.6 13.6C22.7405 13.678 22.8712 13.7658 22.9919 13.8619C23.0816 13.9333 23.1657 14.0093 23.2441 14.0892C23.7352 14.59 24 15.245 24 15.9V21.3C24 21.5169 23.8955 21.7337 23.6865 21.8373C23.6063 21.877 23.5108 21.9 23.4 21.9L22.516 21.4966C22.4896 21.5874 22.4585 21.6771 22.4229 21.7653C22.387 21.8545 22.3466 21.9422 22.302 22.0282C22.2599 22.1092 22.2141 22.1887 22.1648 22.2664C21.5621 23.2153 20.4337 23.9 19.2 23.9H5.10001C3.93779 23.9 2.85894 23.2746 2.24034 22.3469C2.04639 22.0561 1.89768 21.7355 1.80583 21.3952L0.7 21.9H0.6C0.48379 21.9 0.367579 21.87 0.268807 21.81C0.112595 21.715 0 21.545 0 21.3V15.9C0 15.1829 0.317412 14.4658 0.901655 14.0016C1.05069 13.8832 1.21708 13.7813 1.4 13.7L8 10.7L9.7 8.09999C9.9 7.79999 10.2 7.59999 10.5 7.59999H11V5.7C11 5.59401 11.0125 5.49426 11.0363 5.40185C11.1066 5.12963 11.2757 4.92114 11.5153 4.80457C11.5987 4.76402 11.6906 4.73459 11.7898 4.71747C11.9237 4.64716 12.081 4.60649 12.2564 4.60072C12.2708 4.60024 12.2853 4.6 12.3 4.6C12.3859 4.6 12.4702 4.59097 12.5521 4.57384C12.5566 4.57291 12.5611 4.57194 12.5656 4.57096C13.1452 4.44308 13.6 3.90944 13.6 3.3C13.6 2.6 13 2 12.3 2C11.8315 2 11.4239 2.2439 11.1726 2.58886C11.1122 2.67176 11.0608 2.7605 11.0198 2.85309C11.0169 2.85963 11.014 2.8662 11.0112 2.87278C11.0074 2.88182 11.0037 2.89089 11 2.9C10.9908 2.9231 10.9809 2.94577 10.9704 2.96799C10.9551 3.00033 10.9385 3.0317 10.9206 3.06201C10.7118 3.41668 10.3312 3.62645 9.87634 3.54521C9.81869 3.53491 9.75985 3.51995 9.70001 3.5C9.30001 3.4 9.00001 2.8 9.10001 2.3C9.11675 2.25311 9.13429 2.20678 9.15259 2.16103C9.17023 2.11692 9.1886 2.07334 9.20766 2.03031C9.29677 1.82919 9.40123 1.64006 9.51965 1.46429C10.1342 0.552173 11.1251 0 12.3 0C14.1 0 15.6 1.5 15.6 3.3C15.6 3.32503 15.5997 3.34999 15.5991 3.3749C15.5772 4.32281 15.1399 5.18205 14.4652 5.77484C14.1811 6.02438 13.855 6.22671 13.5 6.36856C13.3389 6.43295 13.1718 6.48488 13 6.5231V7.59999H13.5C13.8 7.59999 14.1 7.79999 14.3 8.09999L16 10.6ZM19.2 22C19.7753 22 20.283 21.6623 20.5012 21.1534C20.5363 21.0714 20.564 20.985 20.5832 20.8949C20.5884 20.8701 20.5931 20.8451 20.597 20.8198C20.5981 20.8132 20.5991 20.8066 20.6 20.8L21.18 20.887L13.1 17.2L12 16.7L9.9 17.7L3.54762 20.6H3.70001C3.70001 20.6375 3.70133 20.6746 3.70394 20.7113C3.70542 20.7322 3.70733 20.753 3.70965 20.7737C3.71359 20.8087 3.71871 20.8432 3.72498 20.8772C3.84609 21.5347 4.3955 22 5.10001 22H19.2Z" fill="url(#paint0_linear_506_7869)"/>
<defs>
<linearGradient id="paint0_linear_506_7869" x1="12" y1="0" x2="12" y2="23.9" gradientUnits="userSpaceOnUse">
<stop stop-color="#3F74DB"/>
<stop offset="1" stop-color="#2BDFBE"/>
</linearGradient>
</defs>
</svg>
