<svg width="24" height="24" viewBox="0 0 24 24" fill="none" xmlns="http://www.w3.org/2000/svg">
<path fill-rule="evenodd" clip-rule="evenodd" d="M21.0343 2.29284C20.8349 2.09346 20.5358 1.99377 20.2368 1.99377C20.0374 1.99377 19.838 2.08238 19.6386 2.17099C19.5389 2.2153 19.4392 2.25961 19.3396 2.29284L18.5919 3.04048L18.6418 3.09034L20.708 5.15659C20.7746 5.13267 20.8443 5.1144 20.9165 5.10218L21.5327 4.48598C22.0312 3.98754 22.0312 3.28972 21.5327 2.79128L21.0343 2.29284ZM22.1031 6.80664L22.2306 6.67913L22.1869 6.6355L23.028 5.98131C24.324 4.68536 24.324 2.69159 23.028 1.49533L22.5296 0.996885C21.9315 0.299066 21.134 0 20.2368 0C19.3396 0 18.5421 0.299066 17.9439 0.897197L17.1464 1.69471L15.7508 3.09034L15.8006 3.1402L13.4081 5.53271L13.3583 5.48287L11.9627 6.97815L11.3645 7.57632L3.6885 15.2523L3.48912 15.4517L3.28975 15.7508L1.49535 19.539L0.897221 20.8349L1.30236 21.24C1.26571 21.2682 1.23026 21.2993 1.19626 21.3333L0.299066 22.2305C-0.0996885 22.6293 -0.0996885 23.2274 0.299066 23.6262C0.498443 23.8256 0.69782 23.9252 0.996885 23.9252C1.29595 23.9252 1.49533 23.8256 1.6947 23.6262L2.5919 22.729C2.6259 22.695 2.657 22.6595 2.6852 22.6229L3.09037 23.028L4.38632 22.4299L8.17448 20.6355L8.47355 20.4361L8.67292 20.2368L16.3489 12.5608L16.9471 11.9626L17.7446 11.1651L18.3427 10.567L19.9599 8.94981L19.9377 9.76947L16.1496 13.5576C15.7508 13.9564 15.7508 14.5545 16.1496 14.9533C16.3489 15.1527 16.5483 15.2523 16.8474 15.2523C17.1465 15.2523 17.3458 15.1527 17.5452 14.9533L21.9315 10.6667L22.1031 6.80664ZM19.4393 6.77882L19.3396 6.67913L17.2461 4.58567L14.8536 6.9782L16.9471 9.07166L17.0433 9.17478L19.4393 6.77882ZM5.08414 16.648L12.7602 8.97196L14.9533 11.1651L7.27729 18.8411L3.48912 20.6355L3.28975 20.4361L5.08414 16.648Z" fill="url(#paint0_linear_506_6444)"/>
<defs>
<linearGradient id="paint0_linear_506_6444" x1="12" y1="0" x2="12" y2="23.9252" gradientUnits="userSpaceOnUse">
<stop stop-color="#3F74DB"/>
<stop offset="1" stop-color="#2BDFBE"/>
</linearGradient>
</defs>
</svg>
