<svg width="24" height="24" viewBox="0 0 24 24" fill="none" xmlns="http://www.w3.org/2000/svg">
<path fill-rule="evenodd" clip-rule="evenodd" d="M6 12H3V14H6V17H3V19H6V24H9.02052V19H19V17H9.02052V14.6594H11.7784C14.8208 14.6594 17.1792 14.0082 18.8536 12.7059C20.528 11.3926 21.3653 9.51026 21.3653 7.05882C21.3653 2.35294 18.3611 0 12.3529 0H6V12ZM15 11.6574C14.4277 11.8204 13.7717 11.9346 13.032 12C13.0214 12.0009 13.0107 12.0019 13 12.0028V12H9.02052V2.57729H12.0739C14.186 2.57729 15.7401 2.96033 16.736 3.7264C17.7319 4.49248 18.2298 5.64706 18.2298 7.19015C18.2298 8.8974 17.6936 10.1395 16.6211 10.9166C16.1878 11.226 15.6475 11.4729 15 11.6574Z" fill="url(#paint0_linear_506_6462)"/>
<defs>
<linearGradient id="paint0_linear_506_6462" x1="12.1826" y1="0" x2="12.1826" y2="24" gradientUnits="userSpaceOnUse">
<stop stop-color="#3F74DB"/>
<stop offset="1" stop-color="#2BDFBE"/>
</linearGradient>
</defs>
</svg>
